<svg version="1.1" id="Layer_1" xmlns="http://www.w3.org/2000/svg" xmlns:xlink="http://www.w3.org/1999/xlink" x="0px" y="0px"
	 width="100%" viewBox="0 0 1024 1024" enable-background="new 0 0 1024 1024" xml:space="preserve">
<path fill="#000000" opacity="1.000000" stroke="none" 
	d="
M957.531372,1.000000 
	C959.081787,4.508470 957.322205,7.463528 956.230652,10.591847 
	C946.631042,38.103745 937.057678,65.624893 927.533264,93.162933 
	C922.363464,108.110458 917.392517,123.127235 912.152283,138.049713 
	C909.951599,144.316696 909.460632,150.983170 906.664917,157.169083 
	C903.652588,163.834137 898.983398,167.065186 892.014648,168.334564 
	C871.227234,172.121048 850.533203,176.430847 829.717834,180.047211 
	C822.979797,181.217850 819.671814,183.947830 817.794983,190.885193 
	C799.972473,256.760712 781.686340,322.510620 763.603149,388.315826 
	C750.987610,434.224182 738.242249,480.099335 726.061768,526.123413 
	C722.087280,541.141235 716.613220,555.600708 711.533508,570.197205 
	C709.519531,575.984253 704.411133,580.622986 701.789001,586.283630 
	C694.687317,601.614990 681.135864,610.765686 668.969543,621.076233 
	C636.674255,648.445557 601.951660,672.699707 568.235474,698.240906 
	C498.381134,751.157776 428.262817,803.726135 358.251526,856.435608 
	C301.421387,899.221436 244.600540,942.019409 187.748993,984.776672 
	C174.839142,994.486084 161.811508,1004.038757 148.860428,1013.693604 
	C147.130035,1014.983521 145.445587,1016.360840 143.888657,1017.852844 
	C139.005447,1022.532776 133.234253,1024.366211 126.528442,1023.817932 
	C116.218170,1022.974854 105.884338,1023.028870 95.576668,1023.787292 
	C79.251717,1024.988525 68.078857,1010.978821 73.838226,995.582947 
	C81.546692,974.976746 87.432350,953.800720 94.219940,932.911316 
	C107.392296,892.372070 120.061668,851.669189 132.888214,811.017944 
	C147.518402,764.650391 162.047363,718.250854 176.701614,671.890930 
	C199.986115,598.228271 223.409836,524.609619 246.583435,450.912140 
	C250.017502,439.990997 254.676743,429.381653 256.143372,417.904755 
	C256.517151,414.979645 258.696350,414.665344 260.552155,413.825104 
	C294.847809,398.297211 329.184021,382.858765 363.466980,367.302979 
	C412.922150,344.862854 462.338928,322.338043 511.782196,299.871643 
	C515.057800,298.383240 517.945801,296.121887 522.010864,296.417542 
	C530.004395,296.999054 535.978760,303.254486 534.600891,311.139862 
	C531.796936,327.186005 528.263977,343.083557 523.798157,358.777161 
	C520.565552,370.137024 517.898926,381.657501 514.944580,393.097260 
	C514.445862,395.028351 513.724365,396.913544 515.128540,399.106903 
	C519.775024,399.069763 524.396362,397.592438 528.262024,395.462219 
	C541.098755,388.388397 553.175720,381.047638 556.916199,364.554901 
	C565.675537,325.932404 575.620483,287.578766 585.085510,249.116287 
	C585.284485,248.307938 585.543396,247.509186 585.673645,246.689941 
	C586.430237,241.932007 585.089478,240.728607 580.547852,242.492874 
	C569.524902,246.774902 558.558289,251.202637 547.581055,255.601883 
	C501.975403,273.878876 456.354340,292.117584 410.777740,310.466919 
	C374.933075,324.898102 339.153595,339.491150 303.316925,353.942291 
	C300.404785,355.116608 297.321442,355.991516 294.236969,356.589569 
	C285.365997,358.309631 277.961304,349.799225 280.566071,340.851685 
	C290.009216,308.414001 299.463226,275.979248 309.034576,243.579239 
	C321.861633,200.158554 334.809662,156.773636 347.679688,113.365639 
	C348.859650,109.385887 349.796448,105.334518 350.944824,101.344818 
	C352.183990,97.039742 355.381104,94.996918 359.524475,93.875763 
	C386.683472,86.526833 413.829132,79.128387 440.969391,71.710472 
	C472.120270,63.196384 503.721771,56.016399 534.283630,45.745728 
	C568.570923,34.223083 604.189575,30.102875 639.222229,22.725742 
	C663.511597,17.610918 688.468567,17.613310 712.774597,13.281302 
	C727.359924,10.681801 741.968750,8.985607 756.621338,7.467271 
	C773.824158,5.684673 791.021057,3.776058 808.377014,3.521201 
	C824.006897,3.291691 839.622437,2.082873 855.622131,1.152995 
	C889.687561,1.000000 923.375122,1.000000 957.531372,1.000000 
M383.051819,229.407410 
	C379.638489,240.555298 376.225128,251.703186 372.809448,262.858673 
	C376.435852,264.006104 378.152252,262.329926 380.007568,261.416199 
	C400.762909,251.194519 420.237854,238.457489 441.524719,229.341019 
	C456.642517,222.866592 471.045105,214.596573 487.076111,210.336929 
	C527.138123,199.691879 567.246704,189.220932 607.277954,178.461761 
	C618.520630,175.440063 630.023804,173.292358 640.926941,169.085083 
	C644.813232,167.585434 648.433594,167.339752 651.712097,170.127960 
	C655.059631,172.974930 656.086304,176.630157 654.956238,180.947845 
	C653.143250,187.875473 651.427856,194.828949 649.705261,201.779922 
	C640.093994,240.563660 630.766846,279.420441 620.803040,318.113342 
	C612.599121,349.972107 607.166199,382.648926 593.641785,412.993744 
	C592.970642,414.499573 592.827148,416.362793 591.849243,417.590729 
	C582.642029,429.151428 572.176514,439.761719 558.871582,446.095642 
	C542.911621,453.693542 528.179321,463.404022 512.279114,471.078796 
	C494.736938,479.546082 477.392700,487.688599 457.174744,485.313812 
	C451.117065,484.602295 444.335785,485.016724 440.842377,478.729370 
	C437.854492,473.351807 436.262970,467.554962 437.249847,461.015656 
	C439.717041,444.667572 444.866943,428.980286 448.417877,412.908081 
	C448.855743,410.926147 450.681732,408.621246 448.502777,406.866730 
	C446.316193,405.105988 444.061218,406.792358 441.986115,407.746094 
	C405.965118,424.301880 370.005981,440.994263 333.883728,457.325897 
	C328.166992,459.910522 325.223175,463.510651 323.476715,469.437500 
	C309.075470,518.310059 294.372955,567.093750 279.811493,615.919189 
	C255.924927,696.012146 232.072815,776.115417 208.236328,856.223267 
	C207.846893,857.532104 206.674515,858.979492 208.347336,860.382629 
	C210.429825,860.740479 211.625793,859.092529 213.032028,858.064819 
	C230.386154,845.382874 247.692612,832.635864 265.040436,819.945312 
	C323.002563,777.544373 380.987732,735.174927 438.942627,692.764160 
	C492.863251,653.305664 546.839050,613.921692 600.603760,574.251709 
	C614.041321,564.336975 628.484619,555.706543 638.456299,541.383301 
	C647.897522,527.822021 655.678223,513.709229 660.065125,497.820343 
	C668.880371,465.892090 677.489014,433.906891 686.256714,401.965424 
	C701.367676,346.915497 716.542358,291.883057 731.675659,236.839264 
	C740.323425,205.385086 748.879089,173.905334 757.631104,142.480225 
	C759.263611,136.618347 762.608887,131.572968 769.226135,130.818085 
	C775.987671,130.046738 782.707642,129.148804 789.412842,127.996803 
	C807.889526,124.822395 826.382751,121.742226 844.883179,118.708977 
	C848.894592,118.051285 851.142578,116.196449 852.407104,112.060631 
	C857.857178,94.235062 863.678406,76.522827 869.382568,58.775120 
	C873.040588,47.393757 872.621582,47.220135 860.697205,48.548382 
	C838.036499,51.072536 815.288574,52.826920 792.642395,55.463711 
	C777.193909,57.262432 761.602112,57.715919 746.324463,61.375324 
	C733.892700,64.353081 721.144409,66.022957 708.522156,68.189125 
	C682.962891,72.575478 657.126099,75.642990 632.070618,82.521713 
	C559.992432,102.310097 488.015167,122.466095 415.952179,142.310440 
	C411.694427,143.482941 409.629852,145.580597 408.354736,149.651840 
	C400.098389,176.013580 391.643524,202.313171 383.051819,229.407410 
z"/>
</svg>