<svg version="1.1" id="Layer_1" xmlns="http://www.w3.org/2000/svg" xmlns:xlink="http://www.w3.org/1999/xlink" x="0px" y="0px"
	 width="100%" viewBox="0 0 736 800" enable-background="new 0 0 736 800" xml:space="preserve">
<path fill="#000000" opacity="1.000000" stroke="none" 
	d="
M728.531372,1.000000 
	C727.808594,9.306564 724.114624,16.833254 721.485474,24.679468 
	C713.240295,49.285713 704.646362,73.774940 696.356262,98.366386 
	C694.512573,103.835258 693.751587,109.643234 691.253418,114.941345 
	C689.169800,119.360420 685.923828,121.821716 681.035828,122.697838 
	C663.698303,125.805397 646.420349,129.246094 629.077759,132.323486 
	C623.317505,133.345642 620.484741,136.027695 618.910278,141.995193 
	C609.874084,176.244934 600.309143,210.355118 590.928528,244.514038 
	C581.110107,280.267548 571.291626,316.021088 561.484131,351.777618 
	C555.330139,374.214294 549.054688,396.619019 543.112854,419.111816 
	C540.131653,430.397156 536.674011,441.590210 531.971375,452.160217 
	C527.957031,461.183167 521.881653,469.337982 516.274292,477.574829 
	C514.492432,480.192261 511.169342,481.713837 508.749054,483.950623 
	C487.047760,504.006409 462.702637,520.699158 439.263519,538.534119 
	C405.070587,564.551636 370.695374,590.329712 336.379211,616.185181 
	C305.921967,639.133057 275.436951,662.044128 244.968323,684.976929 
	C195.336624,722.333191 145.709671,759.695740 96.070381,797.041931 
	C94.859077,797.953247 93.633385,798.798584 93.078186,800.667603 
	C65.645775,801.000000 38.291542,801.000000 10.435899,800.627319 
	C14.149668,787.456665 18.490543,774.698608 22.556093,761.853333 
	C34.002983,725.686462 45.302845,689.473206 56.723991,653.298218 
	C69.347580,613.314636 82.060158,573.359070 94.700043,533.380615 
	C111.752281,479.446533 128.772003,425.502197 145.805939,371.562317 
	C149.914917,358.550812 154.431961,345.647461 157.923859,332.472443 
	C159.230057,327.544128 160.844299,324.584625 165.720261,322.418671 
	C200.265625,307.073181 234.657974,291.382904 269.085358,275.772217 
	C302.601807,260.574615 336.153107,245.451599 369.554321,230.004440 
	C374.589172,227.675964 378.969788,226.618988 383.446106,230.239868 
	C387.947418,233.881012 387.812012,238.746521 386.732880,243.926178 
	C383.035645,261.672394 378.199158,279.130066 373.759033,296.690399 
	C372.566833,301.405579 370.573517,306.072144 370.587280,311.109497 
	C372.650879,311.966827 374.161926,311.375519 375.790588,311.038483 
	C383.780396,309.385223 389.765167,304.287811 396.072540,299.661865 
	C400.476746,296.431763 403.215179,292.001801 404.470520,286.994598 
	C412.596436,254.582962 420.483215,222.111267 428.392883,189.645752 
	C428.850159,187.768845 429.746368,185.473633 428.050354,183.954071 
	C426.249176,182.340286 424.203217,183.945038 422.454651,184.643829 
	C386.435730,199.038559 350.463684,213.550598 314.440460,227.934494 
	C273.791656,244.165359 233.096939,260.281342 192.436447,276.483063 
	C188.397934,278.092255 184.859467,277.277649 181.802261,274.498749 
	C178.842041,271.807983 177.974854,268.286560 179.036133,264.448761 
	C181.782928,254.515900 184.518036,244.577621 187.449707,234.698441 
	C203.439117,180.817429 219.676224,127.008484 235.291641,73.019585 
	C237.423935,65.647316 241.130386,62.443169 248.035233,60.585384 
	C292.524628,48.615280 336.902893,36.230724 381.424469,24.383484 
	C388.508148,22.498503 394.929718,18.853909 402.231720,17.722862 
	C415.685272,15.638977 429.096161,13.281430 442.539948,11.132566 
	C454.006866,9.299692 465.350464,6.748408 476.919525,5.496655 
	C489.626404,4.121794 502.307617,2.509081 515.000000,1.000001 
	C586.020874,1.000000 657.041809,1.000000 728.531372,1.000000 
M564.174255,30.864891 
	C551.583496,33.019257 538.988953,35.152027 526.402649,37.332176 
	C493.537170,43.025009 460.337372,46.844254 428.083649,55.913578 
	C405.068420,62.385170 381.430847,66.566612 358.754120,74.324150 
	C336.087708,82.078178 313.467377,89.966888 290.832367,97.812592 
	C288.306274,98.688187 286.194763,99.638962 285.213501,102.775688 
	C276.528656,130.538406 267.531982,158.203720 258.886139,185.978348 
	C257.461975,190.553406 254.745560,195.015396 255.488510,200.003983 
	C257.794647,201.027222 259.186066,199.847733 260.603699,199.100174 
	C268.855804,194.748672 277.090820,190.364349 285.306152,185.943741 
	C306.998840,174.271011 328.854187,162.886734 352.696167,156.178665 
	C373.828705,150.232895 395.164185,145.012222 416.340759,139.218018 
	C436.061707,133.822083 456.070129,129.486801 475.504913,123.021477 
	C482.220612,120.787376 487.385651,125.989311 485.646179,133.135803 
	C481.120453,151.729156 476.399353,170.274841 471.812744,188.853500 
	C464.277344,219.376892 456.625153,249.872894 449.344757,280.457214 
	C445.676300,295.868042 441.000732,310.898743 434.838654,325.477020 
	C434.454468,326.385925 433.959808,327.285706 433.346985,328.054596 
	C426.123535,337.117157 417.801178,345.290222 407.480225,350.364441 
	C394.176117,356.905396 381.575867,364.680969 368.301636,371.262299 
	C354.251160,378.228516 340.235260,383.773315 324.058655,382.508606 
	C312.057678,381.570374 307.583618,377.572540 307.622650,365.619019 
	C307.640167,360.259796 308.571014,355.039062 309.862518,349.871094 
	C312.159729,340.678711 314.516998,331.501343 316.804779,322.306641 
	C317.156891,320.891388 317.787720,319.291016 316.313782,318.127563 
	C314.835968,316.961029 313.460846,318.013245 312.134460,318.625916 
	C304.424622,322.187439 296.733704,325.790039 289.022766,329.349152 
	C266.344910,339.816467 243.659363,350.267212 220.980606,360.732605 
	C218.378464,361.933411 216.224731,363.304871 215.286148,366.482361 
	C207.461914,392.970795 199.428116,419.397186 191.529251,445.863678 
	C179.728134,485.405365 167.991226,524.966248 156.216202,564.515686 
	C144.487564,603.909302 132.742340,643.297974 121.019745,682.693359 
	C120.469765,684.541626 119.472610,686.444580 121.207298,688.516357 
	C124.047417,688.431580 125.882690,686.307251 127.947678,684.803406 
	C148.687714,669.698853 169.395538,654.549927 190.090454,639.383423 
	C241.961502,601.369141 293.811462,563.326111 345.688721,525.320251 
	C381.705444,498.934052 417.650208,472.447693 453.833832,446.292084 
	C470.271454,434.409973 481.164642,418.554413 487.530945,399.796600 
	C493.080170,383.446136 497.073334,366.564423 501.667938,349.893707 
	C513.639343,306.457428 525.580811,263.012878 537.500916,219.562500 
	C547.001648,184.930908 556.448181,150.284454 565.935974,115.649315 
	C566.727112,112.761444 567.733704,109.931778 568.497437,107.037407 
	C572.027832,93.658890 574.427917,92.384163 588.296265,90.628052 
	C606.418640,88.333260 624.388733,84.846062 642.441650,81.980881 
	C645.129700,81.554253 646.568054,80.192467 647.339722,77.744286 
	C652.639893,60.929108 658.015503,44.137459 663.245544,27.300547 
	C665.143860,21.189539 664.494141,20.676491 657.972168,20.336332 
	C648.109131,19.821915 638.423828,21.583792 628.671082,22.381968 
	C618.251831,23.234690 607.774048,23.479481 597.431458,25.282728 
	C586.632629,27.165522 575.794922,28.825592 564.174255,30.864891 
z"/>
</svg>