<svg version="1.1" id="Layer_1" xmlns="http://www.w3.org/2000/svg" xmlns:xlink="http://www.w3.org/1999/xlink" x="0px" y="0px"
	 width="100%" viewBox="0 0 512 512" enable-background="new 0 0 512 512" xml:space="preserve">
<path fill="#000000" opacity="1.000000" stroke="none" 
	d="
M286.552979,243.273102 
	C296.007538,246.984940 305.151245,248.882507 314.442322,244.182953 
	C330.395813,236.113449 331.660553,220.251831 324.028931,207.784500 
	C315.971924,194.622314 303.461212,187.183151 287.495331,186.115326 
	C277.145752,185.423141 266.968842,186.872955 256.734528,187.573410 
	C246.972443,188.241516 241.066132,185.599686 239.735962,174.524384 
	C237.576767,156.546692 235.093735,138.607666 232.973129,120.625687 
	C231.717148,109.975433 235.018417,105.618240 245.774887,103.789185 
	C264.846161,100.546249 283.850464,99.112465 303.143433,103.277077 
	C326.651367,108.351547 346.865784,119.026169 364.855621,134.850220 
	C373.639404,142.576523 381.209961,151.325119 388.613495,160.159393 
	C397.029846,170.202179 402.627441,182.077835 407.598389,194.300659 
	C413.969330,209.965881 416.532623,226.195633 416.209259,242.844864 
	C415.820496,262.863434 411.314240,281.760895 399.736298,298.740967 
	C393.224365,308.291290 385.366608,316.340790 375.963928,322.597809 
	C365.435394,329.604065 353.926422,334.799194 341.023773,336.288818 
	C328.537231,337.730347 316.121643,336.707733 304.125122,333.817993 
	C296.822815,332.058990 289.543182,329.674072 282.180023,328.014313 
	C268.278687,324.880768 254.856323,325.823578 242.898941,334.797455 
	C238.598221,338.025146 232.621170,336.988922 227.622482,331.949860 
	C215.303497,319.531403 203.124557,306.973999 190.892746,294.469086 
	C188.446533,291.968262 185.777435,289.638733 183.634628,286.898987 
	C180.590683,283.007019 179.499954,278.586670 182.279053,274.030396 
	C183.110962,272.666473 183.059265,271.640900 182.397797,270.354614 
	C179.765167,265.235199 181.889786,260.784332 185.064651,257.054260 
	C194.277039,246.230881 206.030106,238.989685 219.714951,235.576233 
	C225.185562,234.211685 231.090530,233.418793 236.990784,234.192551 
	C240.578674,234.663055 244.266220,234.385529 247.909225,234.421539 
	C261.298370,234.553894 273.596985,239.460403 286.552979,243.273102 
z"/>
<path fill="#000000" opacity="1.000000" stroke="none" 
	d="
M122.754906,316.750885 
	C132.714981,307.140747 142.396805,297.752563 152.120789,288.408295 
	C159.855179,280.975891 166.499710,281.202911 174.032333,289.013458 
	C186.516449,301.958130 199.036911,314.867676 211.518051,327.815186 
	C215.836807,332.295319 218.398788,337.285370 215.325119,343.540466 
	C214.248581,345.731262 215.424332,347.390320 216.261505,349.165985 
	C219.150482,355.293610 218.652527,359.293579 213.860519,364.062805 
	C199.460342,378.394531 185.025146,392.692413 170.475769,406.872345 
	C164.099594,413.086639 156.934464,412.824432 150.675262,406.435028 
	C136.808090,392.279236 122.979797,378.085297 109.156357,363.886780 
	C103.356964,357.930023 102.816902,352.911987 107.416481,346.080444 
	C108.491638,344.483551 109.535789,343.267365 108.578102,341.186890 
	C106.117729,335.842010 108.374832,331.388824 111.844955,327.531586 
	C115.179771,323.824768 118.928177,320.490051 122.754906,316.750885 
z"/>
</svg>